<svg width="32" height="32" viewBox="0 0 32 32" fill="none" xmlns="http://www.w3.org/2000/svg">
<path d="M16 0C11.7565 0 7.68687 1.68571 4.68629 4.68629C1.68571 7.68687 3.20373e-07 11.7565 0 16C-3.20373e-07 20.2435 1.68571 24.3131 4.68629 27.3137C7.68687 30.3143 11.7565 32 16 32L16 16L16 0Z" fill="black"/>
<mask id="path-2-inside-1" fill="white">
<path d="M16 32C20.2435 32 24.3131 30.3143 27.3137 27.3137C30.3143 24.3131 32 20.2435 32 16C32 11.7565 30.3143 7.68688 27.3137 4.68629C24.3131 1.68571 20.2435 6.40745e-07 16 0L16 16V32Z"/>
</mask>
<path d="M16 32C20.2435 32 24.3131 30.3143 27.3137 27.3137C30.3143 24.3131 32 20.2435 32 16C32 11.7565 30.3143 7.68688 27.3137 4.68629C24.3131 1.68571 20.2435 6.40745e-07 16 0L16 16V32Z" stroke="black" stroke-width="2" mask="url(#path-2-inside-1)"/>
</svg>
